<svg xmlns="http://www.w3.org/2000/svg" viewBox="0 0 1360 1170" style="width:100%;height:auto;min-width:1040px;display:block" font-family="Segoe UI, Arial, sans-serif">
<rect width="1360" height="1170" fill="#fff"/>
<line x1="210" y1="30" x2="210" y2="1115" stroke="#2b4a6b" stroke-width="3"/>
<line x1="210" y1="1115" x2="1300" y2="1115" stroke="#2b4a6b" stroke-width="3"/>
<line x1="310" y1="40" x2="310" y2="1132" stroke="#5a9e3a" stroke-width="1.5" stroke-dasharray="5 5" opacity="0.75"/>
<line x1="470" y1="40" x2="470" y2="1132" stroke="#5a9e3a" stroke-width="1.5" stroke-dasharray="5 5" opacity="0.75"/>
<line x1="620" y1="40" x2="620" y2="1132" stroke="#4a90d9" stroke-width="1.5" stroke-dasharray="5 5" opacity="0.75"/>
<line x1="850" y1="40" x2="850" y2="1132" stroke="#e53935" stroke-width="1.5" stroke-dasharray="5 5" opacity="0.75"/>
<line x1="1050" y1="40" x2="1050" y2="1132" stroke="#17a2b8" stroke-width="1.5" stroke-dasharray="5 5" opacity="0.75"/>
<line x1="1230" y1="40" x2="1230" y2="1132" stroke="#2e9e5b" stroke-width="1.5" stroke-dasharray="5 5" opacity="0.75"/>
<rect x="342" y="1132" width="96" height="26" rx="6" fill="#fff" stroke="#d7dde3"/>
<text x="390" y="1145" fill="#5a9e3a" font-size="15" font-weight="bold" text-anchor="middle" dominant-baseline="middle">Drying</text>
<rect x="497" y="1132" width="96" height="26" rx="6" fill="#fff" stroke="#d7dde3"/>
<text x="545" y="1145" fill="#e53935" font-size="15" font-weight="bold" text-anchor="middle" dominant-baseline="middle">Heating</text>
<rect x="687" y="1132" width="96" height="26" rx="6" fill="#fff" stroke="#d7dde3"/>
<text x="735" y="1145" fill="#e07b1a" font-size="15" font-weight="bold" text-anchor="middle" dominant-baseline="middle">Cure</text>
<rect x="902" y="1132" width="96" height="26" rx="6" fill="#fff" stroke="#d7dde3"/>
<text x="950" y="1145" fill="#17a2b8" font-size="15" font-weight="bold" text-anchor="middle" dominant-baseline="middle">cooling</text>
<rect x="1092" y="1132" width="96" height="26" rx="6" fill="#fff" stroke="#d7dde3"/>
<text x="1140" y="1145" fill="#2e9e5b" font-size="15" font-weight="bold" text-anchor="middle" dominant-baseline="middle">N2</text>
<polyline fill="none" stroke="#e24bad" stroke-width="3" points="210,145 310,145 310,95 470,95 470,145 620,145 620,145 850,145 850,95 1050,95 1050,145 1230,145 1230,145 1300,145"/>
<text x="196" y="95" fill="#e24bad" font-size="14" font-weight="normal" text-anchor="end" dominant-baseline="middle">Damper (open)</text>
<text x="196" y="145" fill="#e24bad" font-size="14" font-weight="normal" text-anchor="end" dominant-baseline="middle">Damper (close)</text>
<polyline fill="none" stroke="#4a90d9" stroke-width="3" points="210,245 310,245 310,195 470,195 470,245 620,245 620,245 850,245 850,195 1050,195 1050,245 1230,245 1230,245 1300,245"/>
<text x="196" y="220" fill="#4a90d9" font-size="14" font-weight="normal" text-anchor="end" dominant-baseline="middle">Air in Fan (PWM)</text>
<polyline fill="none" stroke="#2e9e5b" stroke-width="3" points="210,345 310,345 310,345 470,345 470,345 620,345 620,345 850,345 850,345 1050,345 1050,295 1230,295 1230,345 1300,345"/>
<text x="196" y="295" fill="#2e9e5b" font-size="14" font-weight="normal" text-anchor="end" dominant-baseline="middle">N2 valve (open)</text>
<text x="196" y="345" fill="#2e9e5b" font-size="14" font-weight="normal" text-anchor="end" dominant-baseline="middle">N2 valve (close)</text>
<text x="1140" y="282" fill="#2e9e5b" font-size="11" font-weight="bold" text-anchor="middle" dominant-baseline="middle">fill (preset duration)</text>
<polyline fill="none" stroke="#2e9e5b" stroke-width="3" points="210,445 310,445 310,445 470,445 470,445 620,445 620,445 850,445 850,445 1050,445 1050,395 1230,395 1230,395 1300,395"/>
<text x="196" y="395" fill="#2e9e5b" font-size="14" font-weight="normal" text-anchor="end" dominant-baseline="middle">N2 in chamber (present)</text>
<text x="196" y="445" fill="#2e9e5b" font-size="14" font-weight="normal" text-anchor="end" dominant-baseline="middle">N2 in chamber (vented)</text>
<polyline fill="none" stroke="#e53935" stroke-width="3" points="210,495 310,495 310,495 470,495 470,495 620,495 620,495 850,495 850,545 1050,545 1050,545 1230,545 1230,545 1300,545"/>
<text x="196" y="495" fill="#e53935" font-size="14" font-weight="normal" text-anchor="end" dominant-baseline="middle">Temperature Control (on)</text>
<text x="196" y="545" fill="#e53935" font-size="14" font-weight="normal" text-anchor="end" dominant-baseline="middle">Temperature Control (off)</text>
<polyline fill="none" stroke="#9a9a17" stroke-width="3" points="210,595 1300,595"/>
<text x="196" y="595" fill="#9a9a17" font-size="14" font-weight="normal" text-anchor="end" dominant-baseline="middle">Fan heater (PWM)</text>
<line x1="210" y1="645" x2="1300" y2="645" stroke="#000" stroke-width="0.5" stroke-dasharray="2 6" opacity="0.15"/>
<line x1="210" y1="705" x2="1300" y2="705" stroke="#000" stroke-width="0.5" stroke-dasharray="2 6" opacity="0.15"/>
<line x1="210" y1="765" x2="1300" y2="765" stroke="#000" stroke-width="0.5" stroke-dasharray="2 6" opacity="0.15"/>
<polyline fill="none" stroke="#111" stroke-width="3.5" points="210,765 310,765 470,705 500,705 620,645 850,645 1050,770 1300,770"/>
<text x="196" y="645" fill="#111" font-size="14" font-weight="normal" text-anchor="end" dominant-baseline="middle">UV temp setpoint</text>
<text x="196" y="705" fill="#111" font-size="14" font-weight="normal" text-anchor="end" dominant-baseline="middle">Drying temp setpoint</text>
<text x="196" y="765" fill="#111" font-size="14" font-weight="normal" text-anchor="end" dominant-baseline="middle">Cooling temp setpoint</text>
<rect x="500" y="835" width="120" height="50" fill="#f2b705" opacity="0.14"/>
<polyline fill="none" stroke="#f2b705" stroke-width="3" points="210,885 620,885 620,835 850,835 850,885 1300,885"/>
<polyline fill="none" stroke="#f2b705" stroke-width="2.5" stroke-dasharray="7 5" points="500,885 500,835 620,835"/>
<text x="196" y="835" fill="#f2b705" font-size="14" font-weight="normal" text-anchor="end" dominant-baseline="middle">UV LED 405 nm (on)</text>
<text x="196" y="885" fill="#f2b705" font-size="14" font-weight="normal" text-anchor="end" dominant-baseline="middle">off</text>
<text x="560" y="822" fill="#b58704" font-size="12" font-weight="bold" text-anchor="middle" dominant-baseline="middle">LED start: on ramp start (dashed)  ↔  at target (solid)</text>
<polyline fill="none" stroke="#8a5cf5" stroke-width="2" points="210,985 1300,985"/>
<polyline fill="none" stroke="#8a5cf5" stroke-width="2.5" stroke-dasharray="7 5" points="620,985 620,935 850,935 850,985"/>
<text x="196" y="935" fill="#8a5cf5" font-size="14" font-weight="normal" text-anchor="end" dominant-baseline="middle">UV LED 450 nm (on)</text>
<text x="196" y="985" fill="#8a5cf5" font-size="14" font-weight="normal" text-anchor="end" dominant-baseline="middle">off</text>
<text x="735" y="922" fill="#8a5cf5" font-size="11" font-weight="bold" text-anchor="middle" dominant-baseline="middle">alternative — 450 nm for a Bleaching step (one wavelength per step)</text>
<rect x="500" y="1035" width="120" height="50" fill="#17a2b8" opacity="0.12"/>
<polyline fill="none" stroke="#17a2b8" stroke-width="3" points="210,1085 620,1085 620,1035 850,1035 850,1085 1300,1085"/>
<polyline fill="none" stroke="#17a2b8" stroke-width="2.5" stroke-dasharray="7 5" points="500,1085 500,1035 620,1035"/>
<text x="196" y="1060" fill="#17a2b8" font-size="14" font-weight="normal" text-anchor="end" dominant-baseline="middle">LED cooling system (PWM)</text>
</svg>